<svg width="25" height="25" viewBox="0 0 25 25" fill="none" xmlns="http://www.w3.org/2000/svg">
<path fill-rule="evenodd" clip-rule="evenodd" d="M12.5 12.6093C12.6192 12.6093 12.7354 12.6471 12.8318 12.7171C12.9283 12.7871 13.0001 12.8859 13.037 12.9992C13.074 13.1126 13.0741 13.2347 13.0374 13.3481C13.0006 13.4615 12.929 13.5604 12.8327 13.6306V14.0681C12.8332 14.1122 12.825 14.1559 12.8085 14.1967C12.7921 14.2376 12.7677 14.2748 12.7367 14.3061C12.7058 14.3374 12.6689 14.3623 12.6283 14.3793C12.5876 14.3963 12.544 14.405 12.5 14.405C12.4559 14.405 12.4123 14.3963 12.3717 14.3793C12.3311 14.3623 12.2942 14.3374 12.2632 14.3061C12.2323 14.2748 12.2079 14.2376 12.1914 14.1967C12.1749 14.1559 12.1667 14.1122 12.1673 14.0681V13.6306C12.071 13.5604 11.9993 13.4615 11.9626 13.3481C11.9259 13.2347 11.926 13.1126 11.9629 12.9992C11.9999 12.8859 12.0717 12.7871 12.1682 12.7171C12.2646 12.647 12.3808 12.6093 12.5 12.6093ZM10.6174 10.7294H10.3726C10.0095 10.7303 9.66162 10.8749 9.40492 11.1316C9.14821 11.3883 9.00362 11.7362 9.00275 12.0992V14.6524C9.00362 15.0154 9.14821 15.3633 9.40492 15.62C9.66162 15.8767 10.0095 16.0213 10.3726 16.0222H14.6279C14.9909 16.0213 15.3388 15.8767 15.5955 15.62C15.8522 15.3633 15.9968 15.0154 15.9977 14.6524V12.0992C15.9968 11.7362 15.8522 11.3883 15.5955 11.1316C15.3388 10.8749 14.9909 10.7303 14.6279 10.7294H14.3831V10.1926C14.3831 9.28256 13.6718 8.50208 12.7636 8.50208H12.2368C11.3287 8.50208 10.6174 9.2825 10.6174 10.1926V10.7294ZM13.7173 10.7294H11.2827V10.1926C11.2827 9.64433 11.6968 9.16745 12.2368 9.16745H12.7632C13.3032 9.16745 13.7173 9.64438 13.7173 10.1926V10.7294ZM14.6275 11.3948H10.3723C10.1856 11.3955 10.0068 11.47 9.87488 11.602C9.74291 11.734 9.66842 11.9127 9.66766 12.0994V14.6525C9.66842 14.8392 9.74291 15.0179 9.87488 15.1499C10.0068 15.2819 10.1856 15.3564 10.3723 15.3571H14.6275C14.8142 15.3563 14.9929 15.2819 15.1249 15.1499C15.2568 15.0179 15.3313 14.8392 15.3321 14.6525V12.0994C15.3313 11.9127 15.2568 11.734 15.1249 11.602C14.9929 11.47 14.8142 11.3956 14.6275 11.3948ZM12.4095 21.0963C12.4662 21.1124 12.5261 21.1131 12.5832 21.0982C16.7336 20.0158 19.5652 16.2079 19.5652 12.0187V7.51154H19.5637C19.5636 7.43958 19.5402 7.3696 19.4968 7.31216C19.4535 7.25472 19.3926 7.21294 19.3235 7.19315L12.5959 5.25437C12.535 5.23587 12.4701 5.23538 12.409 5.25296L5.70722 7.18429C5.63073 7.19841 5.5616 7.23888 5.51184 7.29866C5.46208 7.35844 5.43482 7.43376 5.43481 7.51154V12.0187C5.43481 16.2071 8.2569 20.0032 12.4095 21.0963ZM7.92653 17.3606C9.07294 18.8587 10.6799 19.9385 12.5 20.434C14.3201 19.9385 15.927 18.8587 17.0734 17.3606C18.2525 15.829 18.8943 13.9517 18.8998 12.0187V7.76029L12.5 5.91594L6.10019 7.76029V12.0187C6.10564 13.9517 6.74748 15.829 7.92653 17.3606ZM22.2765 2.72376C22.4951 2.94249 22.6483 3.21796 22.7187 3.5191C22.7891 3.82023 22.774 4.13506 22.675 4.42805C22.576 4.72104 22.3971 4.98054 22.1585 5.17727C21.9199 5.37401 21.631 5.50015 21.3245 5.54147C21.0181 5.58279 20.7061 5.53765 20.4239 5.41113C20.1417 5.28461 19.9005 5.08175 19.7275 4.82544C19.5544 4.56912 19.4564 4.26955 19.4446 3.96052C19.4327 3.65149 19.5075 3.34529 19.6604 3.07647C17.8873 1.72982 15.7705 0.910217 13.5529 0.711672C11.3353 0.513128 9.1066 0.943685 7.1225 1.95396C7.04437 1.993 6.95397 1.99961 6.87098 1.97234C6.788 1.94507 6.71914 1.88614 6.67939 1.80835C6.63964 1.73057 6.63222 1.64024 6.65874 1.55701C6.68525 1.47378 6.74357 1.4044 6.82099 1.36395C8.9229 0.292223 11.2852 -0.162709 13.6348 0.051749C15.9844 0.266207 18.2254 1.1413 20.0985 2.57584C20.4181 2.33295 20.8148 2.2141 21.2153 2.2413C21.6157 2.2685 21.9927 2.4399 22.2765 2.72376ZM21.8061 3.19418C21.182 2.57001 20.109 3.0134 20.109 3.89732C20.109 4.78124 21.1819 5.22432 21.8061 4.60045C21.9925 4.414 22.0973 4.16113 22.0973 3.89747C22.0973 3.63382 21.9925 3.38095 21.8061 3.19449V3.19418ZM2.72377 2.72376C2.9425 2.50513 3.21798 2.35197 3.51911 2.28156C3.82025 2.21115 4.13508 2.2263 4.42807 2.32528C4.72106 2.42427 4.98056 2.60316 5.1773 2.84177C5.37403 3.08038 5.50018 3.36922 5.5415 3.67571C5.58282 3.9822 5.53767 4.29413 5.41115 4.57633C5.28463 4.85852 5.08177 5.09975 4.82546 5.27279C4.56914 5.44584 4.26957 5.54381 3.96054 5.55567C3.65151 5.56752 3.34531 5.49279 3.07649 5.33989C1.72989 7.11293 0.91032 9.22961 0.711775 11.4472C0.513231 13.6647 0.943755 15.8933 1.95397 17.8774C1.97423 17.9162 1.98661 17.9586 1.99039 18.0022C1.99417 18.0458 1.98928 18.0897 1.97599 18.1314C1.96271 18.1731 1.9413 18.2117 1.91299 18.2451C1.88469 18.2785 1.85005 18.3059 1.81109 18.3258C1.77212 18.3457 1.72959 18.3577 1.68597 18.3611C1.64234 18.3645 1.59847 18.3592 1.5569 18.3455C1.51532 18.3319 1.47687 18.3101 1.44375 18.2815C1.41064 18.2529 1.38352 18.218 1.36395 18.1789C0.292225 16.077 -0.16271 13.7147 0.0517492 11.3651C0.266208 9.0155 1.1413 6.77459 2.57585 4.90145C2.33304 4.58193 2.21423 4.18525 2.24143 3.78486C2.26862 3.38448 2.43998 3.00751 2.72377 2.72376ZM3.1942 3.19413C2.57002 3.81825 3.01341 4.89129 3.89734 4.89129C4.78126 4.89129 5.22439 3.81836 4.60048 3.19413C4.41402 3.00772 4.16115 2.903 3.89749 2.903C3.63383 2.903 3.38097 3.00772 3.19451 3.19413H3.1942ZM2.72377 22.2764C2.50515 22.0577 2.35199 21.7823 2.28159 21.4811C2.21118 21.18 2.22632 20.8652 2.32531 20.5722C2.42429 20.2792 2.60318 20.0197 2.84179 19.823C3.0804 19.6262 3.36923 19.5001 3.67572 19.4588C3.9822 19.4174 4.29413 19.4626 4.57633 19.5891C4.85852 19.7156 5.09975 19.9184 5.2728 20.1747C5.44585 20.431 5.54384 20.7306 5.55571 21.0396C5.56757 21.3487 5.49285 21.6549 5.33997 21.9237C7.11304 23.2703 9.22979 24.0899 11.4474 24.2884C13.665 24.4869 15.8937 24.0563 17.8777 23.0459C17.9558 23.0069 18.0462 23.0003 18.1292 23.0276C18.2122 23.0548 18.2811 23.1138 18.3208 23.1915C18.3606 23.2693 18.368 23.3597 18.3415 23.4429C18.315 23.5261 18.2566 23.5955 18.1792 23.636C16.0773 24.7077 13.7149 25.1627 11.3653 24.9483C9.01564 24.7338 6.77468 23.8587 4.90152 22.4241C4.58203 22.6669 4.18536 22.7858 3.78497 22.7586C3.38457 22.7315 3.00757 22.5602 2.72377 22.2764ZM3.19415 21.806C3.81833 22.4302 4.89131 21.9867 4.89131 21.1029C4.89131 20.2191 3.81838 19.7758 3.19415 20.3998C3.1018 20.4921 3.02855 20.6017 2.97858 20.7224C2.9286 20.843 2.90288 20.9723 2.90288 21.1029C2.90288 21.2335 2.9286 21.3628 2.97858 21.4834C3.02855 21.6041 3.1018 21.7137 3.19415 21.806ZM22.2768 22.2764C22.058 22.4951 21.7825 22.6482 21.4814 22.7186C21.1803 22.789 20.8655 22.7739 20.5725 22.6749C20.2795 22.5759 20.02 22.397 19.8233 22.1584C19.6265 21.9198 19.5004 21.6309 19.4591 21.3245C19.4177 21.018 19.4629 20.706 19.5894 20.4239C19.7159 20.1417 19.9188 19.9004 20.1751 19.7274C20.4314 19.5543 20.731 19.4564 21.04 19.4445C21.349 19.4326 21.6552 19.5074 21.924 19.6603C23.2706 17.8871 24.0901 15.7704 24.2886 13.5528C24.487 11.3352 24.0564 9.10651 23.046 7.12247C23.0256 7.08367 23.0131 7.0412 23.0092 6.99752C23.0053 6.95384 23.0101 6.90982 23.0233 6.86802C23.0366 6.82621 23.058 6.78745 23.0863 6.75399C23.1147 6.72052 23.1494 6.69302 23.1884 6.67306C23.2275 6.65311 23.2701 6.64111 23.3138 6.63775C23.3576 6.6344 23.4015 6.63976 23.4432 6.65352C23.4848 6.66728 23.5233 6.68917 23.5564 6.71793C23.5895 6.74668 23.6166 6.78171 23.6361 6.82101C24.7078 8.9229 25.1627 11.2852 24.9483 13.6348C24.7338 15.9844 23.8587 18.2253 22.4242 20.0984C22.6671 20.4179 22.786 20.8147 22.7588 21.2151C22.7317 21.6156 22.5603 21.9926 22.2765 22.2764H22.2768ZM21.8063 21.806C22.4305 21.1819 21.9871 20.1089 21.1032 20.1089C20.2193 20.1089 19.7761 21.1818 20.4001 21.806C20.5865 21.9925 20.8394 22.0972 21.1031 22.0972C21.3667 22.0972 21.6196 21.9925 21.8061 21.806H21.8063Z" fill="#00682C"/>
</svg>
